<svg xmlns="http://www.w3.org/2000/svg" viewBox="0 0 200 41"><title>Artboard 1</title><polygon points="139.71 40.41 148.63 40.41 148.63 16.67 139.71 21.36 139.71 40.41"/><polygon points="46.97 28.34 42.39 39.88 57.49 31.93 54.69 24.44 46.97 28.34"/><polygon points="140.46 10.12 140.12 10.29 139.71 10.5 139.71 19.71 148.63 15.01 149.35 14.63 150.09 14.25 157.93 10.12 141.45 10.12 140.46 10.12"/><polygon points="74.31 40.41 82.86 40.41 82.86 16.73 74.31 3.89 74.31 40.41"/><polygon points="45.43 28.3 45.83 27.27 50.94 14.39 46.72 3.12 34.58 32.93 34.16 33.97 33.74 34.99 33.57 35.43 40.01 41.13 40.25 41.35 40.41 40.92 45.01 29.32 45.43 28.3"/><polygon points="66.57 27.99 63.28 19.3 63.02 18.61 56.23 0.7 47.38 0.7 47.54 1.12 47.59 1.28 51.73 12.38 52.12 13.39 52.5 14.4 55.48 22.4 55.75 23.09 56.01 23.78 58.8 31.24 59.06 31.94 59.31 32.64 62.23 40.41 71.28 40.41 66.83 28.68 66.57 27.99"/><polygon points="76.71 0.7 73.94 0.7 74.31 1.26 82.86 14.1 83.58 15.19 84.32 16.29 98.72 37.94 98.72 23.95 83.86 0.7 76.71 0.7"/><rect x="114.72" y="0.7" width="8.87" height="39.71"/><polygon points="157.33 1.63 156.96 1 156.79 0.7 127.37 0.7 127.37 8.64 161.35 8.64 160.54 7.24 157.33 1.63"/><polygon points="171.44 0.7 161.76 0.7 175.01 23.77 179.73 15.31 171.44 0.7"/><polygon points="100.18 23.52 100.18 40.41 108.73 40.41 108.73 0.7 100.18 0.7 100.18 23.52"/><path d="M23.92,28.89v0c-.75,2.89-3.28,4.56-7,4.56-2.63,0-6-.82-7.24-4.7l-.09-.32H.46l.09.5C1.86,36.53,8,41,16.94,41A16.75,16.75,0,0,0,27,38V35.58A7.46,7.46,0,0,0,23.92,28.89Z"/><path d="M9.22,11.91c.86-2.63,3.29-4.34,6.66-4.34a6.58,6.58,0,0,1,6.68,4.34l.09.29h8.77l-.09-.51C29.94,4.41,24.14.07,15.81.07A15.79,15.79,0,0,0,6.13,3.12L6,6C6,7,7.14,10.51,9.22,11.91Z"/><path d="M21.25,17.22l0-.05-7-1.64a21.86,21.86,0,0,1-3.95-1.32l-.71-.36-.7-.41A8.54,8.54,0,0,1,4.61,5.62V4.3l-.75,1-.08.12A11.09,11.09,0,0,0,2.47,7.71a12,12,0,0,0-.92,4.75c0,5.79,3.39,9.51,10.1,11l6.85,1.55a24.25,24.25,0,0,1,4.21,1.47l.72.37.71.42a8.85,8.85,0,0,1,4.34,8.26V36.9l.75-1,.09-.12a11,11,0,0,0,.7-1,11.2,11.2,0,0,0,.62-1.21,12.34,12.34,0,0,0,1-5C31.66,22.81,28,18.79,21.25,17.22Z"/><polygon points="175.91 27.14 175.91 40.41 184.71 40.41 184.71 27.14 176.6 27.14 175.91 27.14"/><polygon points="189.56 0.7 189.44 0.92 181.4 15.3 180.99 16.05 180.57 16.79 175.85 25.24 175.91 25.36 175.91 25.66 184.53 25.66 184.65 25.45 184.71 25.36 184.78 25.24 199 0.7 189.56 0.7"/></svg>